<svg width="41" height="40" viewBox="0 0 41 40" fill="none" xmlns="http://www.w3.org/2000/svg">
<path d="M30.3333 6.66675H10.3333C8.49238 6.66675 7 8.15913 7 10.0001V30.0001C7 31.841 8.49238 33.3334 10.3333 33.3334H30.3333C32.1743 33.3334 33.6667 31.841 33.6667 30.0001V10.0001C33.6667 8.15913 32.1743 6.66675 30.3333 6.66675Z" stroke="#FF3D84" stroke-width="2" stroke-linecap="round" stroke-linejoin="round"/>
<path d="M25.3335 15H15.3335V25H25.3335V15Z" stroke="#FF3D84" stroke-width="2" stroke-linecap="round" stroke-linejoin="round"/>
<path d="M15.3335 1.66675V6.66675" stroke="#FF3D84" stroke-width="2" stroke-linecap="round" stroke-linejoin="round"/>
<path d="M25.3335 1.66675V6.66675" stroke="#FF3D84" stroke-width="2" stroke-linecap="round" stroke-linejoin="round"/>
<path d="M15.3335 33.3333V38.3333" stroke="#FF3D84" stroke-width="2" stroke-linecap="round" stroke-linejoin="round"/>
<path d="M25.3335 33.3333V38.3333" stroke="#FF3D84" stroke-width="2" stroke-linecap="round" stroke-linejoin="round"/>
<path d="M33.667 15H38.667" stroke="#FF3D84" stroke-width="2" stroke-linecap="round" stroke-linejoin="round"/>
<path d="M33.667 23.3333H38.667" stroke="#FF3D84" stroke-width="2" stroke-linecap="round" stroke-linejoin="round"/>
<path d="M2 15H7" stroke="#FF3D84" stroke-width="2" stroke-linecap="round" stroke-linejoin="round"/>
<path d="M2 23.3333H7" stroke="#FF3D84" stroke-width="2" stroke-linecap="round" stroke-linejoin="round"/>
</svg>
