<?xml version="1.0" encoding="utf-8"?>
<!-- Generator: Adobe Illustrator 28.2.0, SVG Export Plug-In . SVG Version: 6.00 Build 0)  -->
<svg version="1.1" id="block-large-low" xmlns="http://www.w3.org/2000/svg" xmlns:xlink="http://www.w3.org/1999/xlink" x="0px"
	 y="0px" viewBox="0 0 167 285" style="enable-background:new 0 0 167 285;" xml:space="preserve">
<style type="text/css">
	.st0{fill:url(#block-large-low-bg_00000030469642412820804990000004056336186248471965_);}
	.st1{fill:url(#block-large-low-shading_00000028319480760003245440000017808356371311142281_);fill-opacity:0.2;}
	
		.st2{fill:none;stroke:url(#block-large-low-cetnre_00000150065619238430696210000018433410783807061682_);stroke-width:0.4484;stroke-linejoin:round;}
	.st3{fill:url(#block-large-low-roof_00000161623950163830358900000016264540417469808259_);}
	.st4{fill:url(#block-large-low-top_00000098213783116328505090000014138942274252854693_);fill-opacity:0.2;}
	.st5{fill:none;stroke:#141516;stroke-width:0.3336;stroke-linejoin:round;}
	.st6{opacity:0.6;}
	.st7{fill:none;stroke:#59FAFA;stroke-width:0.6727;stroke-linejoin:round;}
	.st8{opacity:0.2;}
	.st9{fill:none;stroke:#59FAFA;stroke-width:0.5073;stroke-linejoin:round;}
</style>
<linearGradient id="block-large-low-bg_00000103248443460900313630000006803383678920917145_" gradientUnits="userSpaceOnUse" x1="36.5734" y1="118.504" x2="522.6987" y2="200.966" gradientTransform="matrix(1 0 0 -1 0 286)">
	<stop  offset="0" style="stop-color:#000000"/>
	<stop  offset="1" style="stop-color:#128FA3"/>
</linearGradient>
<path id="block-large-low-bg" style="fill:url(#block-large-low-bg_00000103248443460900313630000006803383678920917145_);" d="
	M165.3,46.7v190.1c0,1.2-0.6,2.4-1.8,3.1l-71.4,42c-5.4,3.2-12.2,3.2-17.6,0L2.8,240c-1.2-0.7-1.8-2-1.8-3.2v0.1V48.5"/>
<linearGradient id="block-large-low-shading_00000062891995315358823440000014232581553702421171_" gradientUnits="userSpaceOnUse" x1="8.1999" y1="113.974" x2="126.7238" y2="133.1304" gradientTransform="matrix(1 0 0 -1 0 286)">
	<stop  offset="0" style="stop-color:#ECB8AB"/>
	<stop  offset="1" style="stop-color:#666666;stop-opacity:0"/>
</linearGradient>
<path id="block-large-low-shading" style="fill:url(#block-large-low-shading_00000062891995315358823440000014232581553702421171_);fill-opacity:0.2;" d="
	M165.3,46.7v190.1c0,1.2-0.6,2.4-1.8,3.1l-71.4,42c-5.4,3.2-12.2,3.2-17.6,0L2.8,240c-1.2-0.7-1.8-2-1.8-3.2v0.1V48.5"/>
<linearGradient id="block-large-low-cetnre_00000164513252471911371080000004998279197909857469_" gradientUnits="userSpaceOnUse" x1="83.5125" y1="191.353" x2="83.5125" y2="2.108" gradientTransform="matrix(1 0 0 -1 0 286)">
	<stop  offset="0" style="stop-color:#2395AC"/>
	<stop  offset="1" style="stop-color:#0E3D46"/>
</linearGradient>
<path id="block-large-low-cetnre" style="fill:none;stroke:url(#block-large-low-cetnre_00000164513252471911371080000004998279197909857469_);stroke-width:0.4484;stroke-linejoin:round;" d="
	M83.5,283.9V94.6"/>
<linearGradient id="block-large-low-roof_00000156570466040382514500000016825802796550869690_" gradientUnits="userSpaceOnUse" x1="165.0999" y1="256.3323" x2="-300.5221" y2="147.5936" gradientTransform="matrix(1 0 0 -1 0 286)">
	<stop  offset="0" style="stop-color:#000000"/>
	<stop  offset="1" style="stop-color:#128FA3"/>
</linearGradient>
<path id="block-large-low-roof" style="fill:url(#block-large-low-roof_00000156570466040382514500000016825802796550869690_);" d="
	M74.5,3.6L2.8,45.5c-2.5,1.4-2.5,5,0,6.4l71.7,42c5.4,3.2,12.2,3.2,17.6,0l71.4-42c2.4-1.4,2.4-5,0-6.4L92.1,3.6
	C86.7,0.4,79.9,0.4,74.5,3.6z"/>
<linearGradient id="block-large-low-top_00000148641750854726293340000010102631508345571231_" gradientUnits="userSpaceOnUse" x1="125.8783" y1="258.8516" x2="26.7948" y2="208.5468" gradientTransform="matrix(1 0 0 -1 0 286)">
	<stop  offset="0" style="stop-color:#ECB8AB"/>
	<stop  offset="1" style="stop-color:#666666;stop-opacity:0"/>
</linearGradient>
<path id="block-large-low-top" style="fill:url(#block-large-low-top_00000148641750854726293340000010102631508345571231_);fill-opacity:0.2;" d="
	M74.5,3.6L2.8,45.5c-2.5,1.4-2.5,5,0,6.4l71.7,42c5.4,3.2,12.2,3.2,17.6,0l71.4-42c2.4-1.4,2.4-5,0-6.4L92.1,3.6
	C86.7,0.4,79.9,0.4,74.5,3.6z"/>
<path class="st5" d="M74.5,3.6L2.8,45.5c-2.5,1.4-2.5,5,0,6.4l71.7,42c5.4,3.2,12.2,3.2,17.6,0l71.4-42c2.4-1.4,2.4-5,0-6.4
	L92.1,3.6C86.7,0.4,79.9,0.4,74.5,3.6z"/>
<g class="st6">
	<g>
		<path class="st7" d="M0.9,190.3c0,1.3,0.6,2.5,1.8,3.2l71.7,42c5.4,3.2,12.2,3.2,17.6,0l71.4-42c1.2-0.7,1.8-2,1.8-3.2"/>
	</g>
	<g>
		<path class="st7" d="M0.9,144.4c0,1.3,0.6,2.5,1.8,3.2l71.7,42c5.4,3.2,12.2,3.2,17.6,0l71.4-42c1.2-0.7,1.8-2,1.8-3.2"/>
	</g>
	<g>
		<path class="st7" d="M0.9,98.4c0,1.3,0.6,2.5,1.8,3.2l71.7,42c5.4,3.2,12.2,3.2,17.6,0l71.4-42c1.2-0.7,1.8-2,1.8-3.2"/>
	</g>
	<g>
		<path class="st7" d="M0.9,48.9c0,1.3,0.6,2.5,1.8,3.2l71.7,42c5.4,3.2,12.2,3.2,17.6,0l71.4-42c1.2-0.7,1.8-2,1.8-3.2"/>
	</g>
</g>
<g class="st8">
	<g>
		<path class="st9" d="M0.9,236.6c0,1.3,0.6,2.5,1.8,3.2l71.7,42c5.4,3.2,12.2,3.2,17.6,0l71.4-42c1.2-0.7,1.8-2,1.8-3.2"/>
	</g>
</g>
</svg>
