<?xml version="1.0" encoding="utf-8"?>
<!-- Generator: Adobe Illustrator 28.2.0, SVG Export Plug-In . SVG Version: 6.00 Build 0)  -->
<svg version="1.1" id="layered-block-small" xmlns="http://www.w3.org/2000/svg" xmlns:xlink="http://www.w3.org/1999/xlink"
	 x="0px" y="0px" viewBox="0 0 79.5 120.9" style="enable-background:new 0 0 79.5 120.9;" xml:space="preserve">
<g id="layered-block-small-panels">
	<g>
		<path style="opacity:0.4;fill:#59FAFA;" d="M74.9,75.8v21.4c0,0.5-0.3,1-0.8,1.3l-30.5,18c-2.3,1.3-5.2,1.3-7.6,0l-30.6-18
			c-0.5-0.3-0.8-0.8-0.8-1.3l0,0V75.8"/>
		<path style="opacity:0.2;fill:#59FAFA;" d="M76.7,74.7v22.5c0,0.5-0.3,1.1-0.9,1.4l-32.1,18.9c-2.4,1.4-5.5,1.4-8,0L3.5,98.7
			c-0.5-0.3-0.9-0.9-0.9-1.4l0,0V74.7"/>
		<path style="opacity:0.1;fill:#59FAFA;" d="M78.7,73.6v23.7c0,0.6-0.3,1.2-0.9,1.5L44,118.7c-2.5,1.5-5.8,1.5-8.4,0L1.6,98.8
			c-0.6-0.3-0.9-0.9-0.9-1.5l0,0V73.6"/>
		<path style="fill:#59FAFA;" d="M73.6,76.6v20.6c0,0.5-0.3,1-0.8,1.3l-29.4,17.3c-2.2,1.3-5,1.3-7.3,0L6.6,98.5
			c-0.5-0.3-0.8-0.8-0.8-1.3l0,0V76.6"/>
	</g>
	<g>
		<path style="opacity:0.4;fill:#59FAFA;" d="M74.9,39.9v21.4c0,0.5-0.3,1-0.8,1.3L43.5,80.5c-2.3,1.3-5.2,1.3-7.6,0L5.3,62.7
			c-0.5-0.3-0.8-0.8-0.8-1.3l0,0V39.9"/>
		<path style="opacity:0.2;fill:#59FAFA;" d="M76.7,38.8v22.5c0,0.5-0.3,1.1-0.9,1.4L43.7,81.6c-2.4,1.4-5.5,1.4-8,0L3.5,62.8
			c-0.5-0.3-0.9-0.9-0.9-1.4l0,0V38.8"/>
		<path style="opacity:0.1;fill:#59FAFA;" d="M78.7,37.7v23.7c0,0.6-0.3,1.2-0.9,1.5L44,82.7c-2.5,1.5-5.8,1.5-8.4,0L1.6,62.9
			c-0.6-0.3-0.9-0.9-0.9-1.5l0,0V37.7"/>
		<path style="fill:#59FAFA;" d="M73.6,40.7v20.6c0,0.5-0.3,1-0.8,1.3L43.4,79.8c-2.2,1.3-5,1.3-7.3,0L6.6,62.6
			c-0.5-0.3-0.8-0.8-0.8-1.3l0,0V40.7"/>
	</g>
</g>
<path style="fill:#082023;" d="M72.9,62.6L43.4,79.8c-2.2,1.3-5,1.3-7.3,0L6.6,62.6c-0.5-0.3-0.8-0.8-0.8-1.3l0,0v17.9
	c0,0.5,0.3,1,0.8,1.3l29.5,17.3c2.2,1.3,5,1.3,7.3,0l29.4-17.3c0.5-0.3,0.7-0.8,0.8-1.3V61.3C73.6,61.8,73.4,62.3,72.9,62.6z"/>
<path style="fill:#082023;" d="M73.6,24.6v18.8c0,0.5-0.3,1-0.8,1.3L43.4,61.9c-2.2,1.3-5,1.3-7.3,0L6.6,44.6
	c-0.5-0.3-0.8-0.8-0.8-1.3l0,0V24.6"/>
<linearGradient id="layered-block-small-shadow_00000031182074029224786210000000065620946426397601_" gradientUnits="userSpaceOnUse" x1="5.9" y1="51.4125" x2="73.7" y2="51.4125" gradientTransform="matrix(1 0 0 -1 0 122)">
	<stop  offset="0" style="stop-color:#000000"/>
	<stop  offset="1" style="stop-color:#000000;stop-opacity:0"/>
</linearGradient>
<path id="layered-block-small-shadow" style="fill:url(#layered-block-small-shadow_00000031182074029224786210000000065620946426397601_);fill-opacity:0.25;" d="
	M5.9,24.6v16.1v2.6l0,0v17.9l0,0v15.3v2.6V97c0,0.5,0.3,1,0.8,1.3l29.5,17.3c2.2,1.3,5,1.3,7.3,0l29.4-17.3c0.5-0.3,0.7-0.8,0.8-1.3
	V79.2v-2.6V61.3V43.4v-2.6V24.6H5.9z"/>
<linearGradient id="layered-block-small-shading_00000052069402701723057670000011750522660018084238_" gradientUnits="userSpaceOnUse" x1="35.1315" y1="931.6934" x2="46.4694" y2="1017.5088" gradientTransform="matrix(1 0 0 1 0 -942)">
	<stop  offset="0" style="stop-color:#17191B"/>
	<stop  offset="8.500000e-02" style="stop-color:#17191B"/>
	<stop  offset="0.5863" style="stop-color:#1A8F8E"/>
</linearGradient>
<path id="layered-block-small-shading" style="fill:url(#layered-block-small-shading_00000052069402701723057670000011750522660018084238_);" d="
	M36.2,6.1L6.6,23.3c-1,0.6-1,2,0,2.6l29.5,17.3c2.2,1.3,5,1.3,7.3,0L72.9,26c1-0.6,1-2,0-2.6L43.4,6.1C41.2,4.8,38.4,4.8,36.2,6.1z"
	/>
<path style="fill-opacity:0.75;" d="M36.2,6.1L6.6,23.3c-1,0.6-1,2,0,2.6l29.5,17.3c2.2,1.3,5,1.3,7.3,0L72.9,26c1-0.6,1-2,0-2.6
	L43.4,6.1C41.2,4.8,38.4,4.8,36.2,6.1z"/>
<path id="layered-block-small-roof" style="fill:#FCB100;" d="M52.6,17.4L52.6,17.4c7.2,4.1,7.2,10.9,0,15l0,0
	c-7.2,4.1-18.8,4.1-26,0l0,0c-7.2-4.1-7.2-10.9,0-15l0,0C33.8,13.2,45.4,13.2,52.6,17.4z"/>
<g id="layered-block-small-rim">
	<path style="fill:none;stroke:#2395AC;stroke-width:0.8969;stroke-linejoin:round;" d="M5.9,25.1c0,0.5,0.3,1,0.8,1.3l29.5,17.3
		c2.2,1.3,5,1.3,7.3,0l29.4-17.3c0.5-0.3,0.8-0.8,0.8-1.3"/>
</g>
</svg>
