<?xml version="1.0" encoding="utf-8"?>
<!-- Generator: Adobe Illustrator 28.2.0, SVG Export Plug-In . SVG Version: 6.00 Build 0)  -->
<svg version="1.1" id="simple-block-small" xmlns="http://www.w3.org/2000/svg" xmlns:xlink="http://www.w3.org/1999/xlink" x="0px"
	 y="0px" viewBox="0 0 75 125.9" style="enable-background:new 0 0 75 125.9;" xml:space="preserve">
<linearGradient id="simple-block-small-bg_00000103240011854788226730000018245694006528877502_" gradientUnits="userSpaceOnUse" x1="37.4" y1="1080.8038" x2="37.4" y2="613.9698" gradientTransform="matrix(1 0 0 1 0 -960.2496)">
	<stop  offset="0" style="stop-color:#000000"/>
	<stop  offset="1" style="stop-color:#128FA3"/>
</linearGradient>
<path id="simple-block-small-bg" style="fill:url(#simple-block-small-bg_00000103240011854788226730000018245694006528877502_);" d="
	M71.3,28.5v72.6c0,0.5-0.3,1-0.8,1.3l-29.4,17.3c-2.2,1.3-5,1.3-7.3,0L4.3,102.4c-0.5-0.3-0.8-0.8-0.8-1.3l0,0V28.5"/>
<linearGradient id="simple-block-small-shading_00000067941046922055488900000005090630904723683210_" gradientUnits="userSpaceOnUse" x1="1.9383" y1="1034.3998" x2="64.59" y2="1034.9222" gradientTransform="matrix(1 0 0 1 0 -960.2496)">
	<stop  offset="0" style="stop-color:#ECB8AB"/>
	<stop  offset="1" style="stop-color:#666666;stop-opacity:0"/>
</linearGradient>
<path id="simple-block-small-shading" style="fill:url(#simple-block-small-shading_00000067941046922055488900000005090630904723683210_);fill-opacity:5.000000e-02;" d="
	M71.3,28.5v72.6c0,0.5-0.3,1-0.8,1.3l-29.4,17.3c-2.2,1.3-5,1.3-7.3,0L4.3,102.4c-0.5-0.3-0.8-0.8-0.8-1.3l0,0V28.5"/>
<linearGradient id="simple-block-small-centre_00000082338437125055558680000010645126598669458601_" gradientUnits="userSpaceOnUse" x1="37.2" y1="1009.0496" x2="37.2" y2="1080.8496" gradientTransform="matrix(1 0 0 1 0 -960.2496)">
	<stop  offset="0" style="stop-color:#2395AC"/>
	<stop  offset="1" style="stop-color:#0E3D46"/>
</linearGradient>
<path id="simple-block-small-centre" style="fill:none;stroke:url(#simple-block-small-centre_00000082338437125055558680000010645126598669458601_);stroke-width:0.4484;stroke-linejoin:round;stroke-opacity:0.2;" d="
	M37.2,120.6V48.8"/>
<g id="simple-block-small-roof">
	<path style="opacity:0.1;fill:#59FAFA;" d="M33.4,8L0.8,27.3c-1.1,0.7-1.1,2.3,0,2.9l32.6,19.5c2.4,1.5,5.5,1.5,8.1,0L74,30.3
		c1.1-0.7,1.1-2.3,0-2.9L41.5,8C38.9,6.5,36,6.5,33.4,8z"/>
	<path style="fill:#59FAFA;" d="M33.8,10.3L4.3,27.5c-1,0.6-1,2,0,2.6l29.5,17.3c2.2,1.3,5,1.3,7.3,0l29.4-17.3c1-0.6,1-2,0-2.6
		L41.1,10.3C38.8,9,36.1,9,33.8,10.3z"/>
	<path style="opacity:0.2;fill:#59FAFA;" d="M33.5,9L2,27.4c-1.1,0.6-1.1,2.1,0,2.8l31.6,18.5c2.4,1.4,5.4,1.4,7.8,0l31.5-18.5
		c1.1-0.6,1.1-2.1,0-2.8L41.4,9C38.9,7.6,36,7.6,33.5,9z"/>
	<path style="opacity:0.4;fill:#59FAFA;" d="M33.7,9.3L3.1,27.4c-1,0.6-1,2.1,0,2.7l30.5,18.3c2.3,1.4,5.2,1.4,7.6,0l30.4-18.3
		c1-0.6,1-2.1,0-2.7L41.2,9.3C38.8,7.9,36.1,7.9,33.7,9.3z"/>
</g>
<path id="simple-block-small-rim_00000029021640398589005080000016545553247207793590_" style="fill:none;stroke:#2395AC;stroke-width:0.4484;stroke-linejoin:round;" d="
	M3.5,29.1c0,0.5,0.3,1,0.8,1.3l29.5,17.3c2.2,1.3,5,1.3,7.3,0l29.4-17.3c0.5-0.3,0.8-0.8,0.8-1.3"/>
<polygon style="opacity:0.2;enable-background:new    ;" points="71.3,28.6 37.7,28.6 37.7,9.3 37.2,9.3 37.2,28.6 3.1,28.6 
	3.1,29.1 37.2,29.1 37.2,48.8 37.7,48.8 37.7,29.1 71.3,29.1 "/>
</svg>
