<?xml version="1.0" encoding="utf-8"?>
<!-- Generator: Adobe Illustrator 28.2.0, SVG Export Plug-In . SVG Version: 6.00 Build 0)  -->
<svg version="1.1" id="layered-block" xmlns="http://www.w3.org/2000/svg" xmlns:xlink="http://www.w3.org/1999/xlink" x="0px"
	 y="0px" viewBox="0 0 85.8 208.9" style="enable-background:new 0 0 85.8 208.9;" xml:space="preserve">
<g>
	<g>
		<path style="fill:#171800;" d="M75.9,151.1l-29.4,17.3c-2.2,1.3-5,1.3-7.3,0L9.7,151.1c-0.5-0.3-0.8-0.8-0.8-1.3l0,0v17.9
			c0,0.5,0.3,1,0.8,1.3l29.5,17.3c2.2,1.3,5,1.3,7.3,0L75.9,169c0.5-0.3,0.7-0.8,0.8-1.3v-17.9C76.7,150.3,76.4,150.8,75.9,151.1z"
			/>
		<path style="fill:#171800;" d="M75.9,116.1l-29.4,17.3c-2.2,1.3-5,1.3-7.3,0L9.7,116.1c-0.5-0.3-0.8-0.8-0.8-1.3l0,0v17.9
			c0,0.5,0.3,1,0.8,1.3l29.5,17.3c2.2,1.3,5,1.3,7.3,0L75.9,134c0.5-0.3,0.7-0.8,0.8-1.3v-17.9C76.7,115.3,76.4,115.8,75.9,116.1z"
			/>
		<path style="fill:#171800;" d="M75.9,81.1L46.5,98.3c-2.2,1.3-5,1.3-7.3,0L9.7,81.1c-0.5-0.3-0.8-0.8-0.8-1.3l0,0v17.9
			c0,0.5,0.3,1,0.8,1.3l29.5,17.3c2.2,1.3,5,1.3,7.3,0L75.9,99c0.5-0.3,0.7-0.8,0.8-1.3V79.8C76.7,80.3,76.4,80.8,75.9,81.1z"/>
		<path style="fill:#171800;" d="M75.9,46.1L46.5,63.3c-2.2,1.3-5,1.3-7.3,0L9.7,46.1c-0.5-0.3-0.8-0.8-0.8-1.3l0,0v17.9
			c0,0.5,0.3,1,0.8,1.3l29.5,17.3c2.2,1.3,5,1.3,7.3,0L75.9,64c0.5-0.3,0.7-0.8,0.8-1.3V44.8C76.7,45.3,76.4,45.8,75.9,46.1z"/>
	</g>
	<g id="layered-block-panels">
		<g>
			<path style="opacity:0.3;fill:#59FAFA;" d="M76.8,168.1l-30.2,17.7c-2.3,1.3-5.1,1.3-7.5,0L8.8,168.1c-0.5-0.3-0.8-0.8-0.8-1.3
				l0,0v18.4c0,0.5,0.3,1,0.8,1.3l30.3,17.7c2.3,1.3,5.1,1.3,7.5,0l30.2-17.7c0.5-0.3,0.7-0.8,0.8-1.3v-18.4
				C77.6,167.3,77.3,167.8,76.8,168.1z"/>
			<path style="opacity:0.1;fill:#59FAFA;" d="M80.5,166.2L47,185.9c-2.5,1.5-5.7,1.5-8.3,0L5.1,166.2c-0.6-0.3-0.9-0.9-0.9-1.5l0,0
				v20.4c0,0.6,0.3,1.1,0.9,1.5l33.6,19.7c2.5,1.5,5.7,1.5,8.3,0l33.5-19.7c0.6-0.3,0.8-0.9,0.9-1.5v-20.4
				C81.4,165.2,81.1,165.8,80.5,166.2z"/>
			<path style="opacity:0.1;fill:#59FAFA;" d="M82.5,165.1l-35.3,20.8c-2.6,1.6-6,1.6-8.8,0L3.1,165.1c-0.6-0.4-1-1-1-1.6l0,0V185
				c0,0.6,0.4,1.2,1,1.6l35.4,20.8c2.6,1.6,6,1.6,8.8,0l35.3-20.8c0.6-0.4,0.8-1,1-1.6v-21.5C83.5,164.2,83.1,164.8,82.5,165.1z"/>
			<path style="fill:#59FAFA;" d="M75.9,168.6l-29.4,17.3c-2.2,1.3-5,1.3-7.3,0L9.7,168.6c-0.5-0.3-0.8-0.8-0.8-1.3l0,0v17.9
				c0,0.5,0.3,1,0.8,1.3l29.5,17.3c2.2,1.3,5,1.3,7.3,0l29.4-17.3c0.5-0.3,0.7-0.8,0.8-1.3v-17.9C76.7,167.8,76.4,168.3,75.9,168.6z
				"/>
		</g>
		<g>
			<path style="opacity:0.3;fill:#59FAFA;" d="M76.8,133.1l-30.2,17.7c-2.3,1.3-5.1,1.3-7.5,0L8.8,133.1c-0.5-0.3-0.8-0.8-0.8-1.3
				l0,0v18.4c0,0.5,0.3,1,0.8,1.3l30.3,17.7c2.3,1.3,5.1,1.3,7.5,0l30.2-17.7c0.5-0.3,0.7-0.8,0.8-1.3v-18.4
				C77.6,132.3,77.3,132.8,76.8,133.1z"/>
			<path style="opacity:0.1;fill:#59FAFA;" d="M80.5,131.2L47,150.9c-2.5,1.5-5.7,1.5-8.3,0L5.1,131.2c-0.6-0.3-0.9-0.9-0.9-1.5l0,0
				v20.4c0,0.6,0.3,1.1,0.9,1.5l33.6,19.7c2.5,1.5,5.7,1.5,8.3,0l33.5-19.7c0.6-0.3,0.8-0.9,0.9-1.5v-20.4
				C81.4,130.2,81.1,130.8,80.5,131.2z"/>
			<path style="opacity:0.1;fill:#59FAFA;" d="M82.5,130.1l-35.3,20.8c-2.6,1.6-6,1.6-8.8,0L3.1,130.1c-0.6-0.4-1-1-1-1.6l0,0V150
				c0,0.6,0.4,1.2,1,1.6l35.4,20.8c2.6,1.6,6,1.6,8.8,0l35.3-20.8c0.6-0.4,0.8-1,1-1.6v-21.5C83.5,129.2,83.1,129.8,82.5,130.1z"/>
			<path style="fill:#59FAFA;" d="M75.9,133.6l-29.4,17.3c-2.2,1.3-5,1.3-7.3,0L9.7,133.6c-0.5-0.3-0.8-0.8-0.8-1.3l0,0v17.9
				c0,0.5,0.3,1,0.8,1.3l29.5,17.3c2.2,1.3,5,1.3,7.3,0l29.4-17.3c0.5-0.3,0.7-0.8,0.8-1.3v-17.9C76.7,132.8,76.4,133.3,75.9,133.6z
				"/>
		</g>
		<g>
			<path style="opacity:0.3;fill:#59FAFA;" d="M76.8,98.1l-30.2,17.7c-2.3,1.3-5.1,1.3-7.5,0L8.8,98.1C8.3,97.8,8,97.3,8,96.8l0,0
				v18.4c0,0.5,0.3,1,0.8,1.3l30.3,17.7c2.3,1.3,5.1,1.3,7.5,0l30.2-17.7c0.5-0.3,0.7-0.8,0.8-1.3V96.8
				C77.6,97.3,77.3,97.8,76.8,98.1z"/>
			<path style="opacity:0.1;fill:#59FAFA;" d="M80.5,96.2L47,115.9c-2.5,1.5-5.7,1.5-8.3,0L5.1,96.2c-0.6-0.3-0.9-0.9-0.9-1.5l0,0
				v20.4c0,0.6,0.3,1.1,0.9,1.5l33.6,19.7c2.5,1.5,5.7,1.5,8.3,0l33.5-19.7c0.6-0.3,0.8-0.9,0.9-1.5V94.7
				C81.4,95.2,81.1,95.8,80.5,96.2z"/>
			<path style="opacity:0.1;fill:#59FAFA;" d="M82.5,95.1l-35.3,20.8c-2.6,1.6-6,1.6-8.8,0L3.1,95.1c-0.6-0.4-1-1-1-1.6l0,0V115
				c0,0.6,0.4,1.2,1,1.6l35.4,20.8c2.6,1.6,6,1.6,8.8,0l35.3-20.8c0.6-0.4,0.8-1,1-1.6V93.6C83.5,94.2,83.1,94.8,82.5,95.1z"/>
			<path style="fill:#59FAFA;" d="M75.9,98.6l-29.4,17.3c-2.2,1.3-5,1.3-7.3,0L9.7,98.6c-0.5-0.3-0.8-0.8-0.8-1.3l0,0v17.9
				c0,0.5,0.3,1,0.8,1.3l29.5,17.3c2.2,1.3,5,1.3,7.3,0l29.4-17.3c0.5-0.3,0.7-0.8,0.8-1.3V97.3C76.7,97.8,76.4,98.3,75.9,98.6z"/>
		</g>
		<g>
			<path style="opacity:0.3;fill:#59FAFA;" d="M76.8,63.1L46.6,80.8c-2.3,1.3-5.1,1.3-7.5,0L8.8,63.1C8.3,62.8,8,62.3,8,61.8l0,0
				v18.4c0,0.5,0.3,1,0.8,1.3l30.3,17.7c2.3,1.3,5.1,1.3,7.5,0l30.2-17.7c0.5-0.3,0.7-0.8,0.8-1.3V61.8
				C77.6,62.3,77.3,62.8,76.8,63.1z"/>
			<path style="opacity:0.1;fill:#59FAFA;" d="M80.5,61.2L47,80.8c-2.5,1.5-5.7,1.5-8.3,0L5.1,61.2c-0.6-0.3-0.9-0.9-0.9-1.5l0,0
				v20.4c0,0.6,0.3,1.1,0.9,1.5l33.6,19.7c2.5,1.5,5.7,1.5,8.3,0l33.5-19.7c0.6-0.3,0.8-0.9,0.9-1.5V59.7
				C81.4,60.2,81.1,60.8,80.5,61.2z"/>
			<path style="opacity:0.1;fill:#59FAFA;" d="M82.5,60.1L47.2,80.8c-2.6,1.6-6,1.6-8.8,0L3.1,60.1c-0.6-0.4-1-1-1-1.6l0,0V80
				c0,0.6,0.4,1.2,1,1.6l35.4,20.8c2.6,1.6,6,1.6,8.8,0l35.3-20.8c0.6-0.4,0.8-1,1-1.6V58.6C83.5,59.2,83.1,59.8,82.5,60.1z"/>
			<path style="fill:#59FAFA;" d="M75.9,63.6L46.5,80.8c-2.2,1.3-5,1.3-7.3,0L9.7,63.6c-0.5-0.3-0.8-0.8-0.8-1.3l0,0v17.9
				c0,0.5,0.3,1,0.8,1.3l29.5,17.3c2.2,1.3,5,1.3,7.3,0l29.4-17.3c0.5-0.3,0.7-0.8,0.8-1.3V62.3C76.7,62.8,76.4,63.3,75.9,63.6z"/>
		</g>
		<g>
			<path style="opacity:0.3;fill:#59FAFA;" d="M77.6,26.2c0-0.5-0.3-1-0.7-1.2L46.6,7.3c-2.3-1.3-5.1-1.3-7.4,0L8.8,24.9
				c-0.5,0.3-0.7,0.8-0.7,1.2l0,0v0.1l0,0v19.2c0,0.5,0.3,1,0.8,1.3l30.3,17.7c2.3,1.3,5.1,1.3,7.5,0l30.2-17.7
				c0.5-0.3,0.7-0.8,0.8-1.3L77.6,26.2L77.6,26.2z"/>
			<path style="opacity:0.1;fill:#59FAFA;" d="M81.4,25.1c0-0.6-0.3-1.1-0.8-1.4L47,4.1c-2.5-1.5-5.7-1.5-8.2,0L5.1,23.7
				c-0.6,0.3-0.8,0.9-0.8,1.4l0,0v0.1l0,0v21.3c0,0.6,0.3,1.1,0.9,1.5l33.6,19.7c2.5,1.5,5.7,1.5,8.3,0L80.6,48
				c0.6-0.3,0.8-0.9,0.9-1.5L81.4,25.1L81.4,25.1z"/>
			<path style="opacity:0.1;fill:#59FAFA;" d="M83.5,24.5c0-0.6-0.4-1.2-0.8-1.4L47.2,2.4c-2.6-1.6-6-1.6-8.6,0L3.1,23.1
				c-0.6,0.4-0.8,1-0.8,1.4l0,0v0.1l0,0v22.4c0,0.6,0.4,1.2,1,1.6l35.4,20.8c2.6,1.6,6,1.6,8.8,0l35.3-20.8c0.6-0.4,0.8-1,1-1.6
				L83.5,24.5L83.5,24.5z"/>
			<path style="fill:#59FAFA;" d="M76.7,26.4c0-0.5-0.3-1-0.7-1.2L46.5,8c-2.2-1.3-5-1.3-7.2,0L9.7,25.2C9.2,25.5,9,26,9,26.4l0,0
				v0.1l0,0v18.7c0,0.5,0.3,1,0.8,1.3l29.5,17.3c2.2,1.3,5,1.3,7.3,0L76,46.5c0.5-0.3,0.7-0.8,0.8-1.3L76.7,26.4L76.7,26.4z"/>
		</g>
	</g>
</g>
<path id="layered-block-circle" style="opacity:0.2;fill-opacity:0.8;enable-background:new    ;" d="M55.6,18.6L55.6,18.6
	c7.2,4.1,7.2,10.9,0,15l0,0c-7.2,4.1-18.8,4.1-26,0l0,0c-7.2-4.1-7.2-10.9,0-15l0,0C36.8,14.4,48.5,14.4,55.6,18.6z"/>
<g id="layered-block-top" style="opacity:0.6;">
	<g>
		<path style="fill:none;stroke:#2395AC;stroke-width:0.4484;stroke-linejoin:round;" d="M8.9,26.1c0,0.5,0.3,1,0.8,1.3l29.5,17.3
			c2.2,1.3,5,1.3,7.3,0l29.4-17.3c0.5-0.3,0.8-0.8,0.8-1.3"/>
	</g>
	<path style="fill:none;stroke:#2395AC;stroke-width:0.4484;stroke-linejoin:round;" d="M8.9,26.1c0,0.5,0.3,1,0.8,1.3l29.5,17.3
		c2.2,1.3,5,1.3,7.3,0l29.4-17.3c0.5-0.3,0.8-0.8,0.8-1.3"/>
</g>
<linearGradient id="layered-block-centre_00000016767957692705747040000008558795572693180552_" gradientUnits="userSpaceOnUse" x1="42.6" y1="914.7439" x2="42.6" y2="1073.9438" gradientTransform="matrix(1 0 0 1 0 -869.1439)">
	<stop  offset="0" style="stop-color:#2395AC"/>
	<stop  offset="1" style="stop-color:#0E3D46"/>
</linearGradient>
<path id="layered-block-centre" style="fill:none;stroke:url(#layered-block-centre_00000016767957692705747040000008558795572693180552_);stroke-width:0.4484;stroke-linejoin:round;stroke-opacity:0.4;" d="
	M42.6,204.8V45.6"/>
<linearGradient id="layered-block-shading_00000158011958421648531540000002373225995568105364_" gradientUnits="userSpaceOnUse" x1="9" y1="104.15" x2="76.8" y2="104.15" gradientTransform="matrix(1 0 0 -1 0 210)">
	<stop  offset="0" style="stop-color:#000000"/>
	<stop  offset="1" style="stop-color:#000000;stop-opacity:0"/>
</linearGradient>
<path id="layered-block-shading" style="fill:url(#layered-block-shading_00000158011958421648531540000002373225995568105364_);fill-opacity:0.25;" d="
	M76.7,26.4c0-0.5-0.3-1-0.7-1.2L46.5,8c-2.2-1.3-5-1.3-7.2,0L9.7,25.2C9.2,25.5,9,26,9,26.4l0,0v0.1l0,0v18.2l0,0v0.4v17.1l0,0v0.4
	v17.1l0,0v0.4v17.1l0,0v0.4v17.1l0,0v0.4v17.1l0,0v0.4v17.1l0,0v0.4v17.1l0,0v0.4v17.5c0,0.5,0.3,1,0.8,1.3l29.5,17.3
	c2.2,1.3,5,1.3,7.3,0L76,186.4c0.5-0.3,0.7-0.8,0.8-1.3v-17.5v-0.4v-17.1v-0.4v-17.1v-0.4v-17.1v-0.4v-17v-0.4V80.2v-0.4V62.7v-0.4
	V45.2v-0.4L76.7,26.4L76.7,26.4z"/>
</svg>
