<svg width="64" height="28" viewBox="0 0 64 28" fill="none" xmlns="http://www.w3.org/2000/svg">
<path d="M0 27.0222V0H7.65995V10.925H8.0457L16.5323 0H25.4597L15.9261 12.0333L25.6801 27.0222H16.5323L10.1949 16.8889L7.65995 20.0556V27.0222H0ZM36.5567 0V27.0222H28.8968V0H36.5567ZM41.3508 27.0222V0H53.5295C55.6236 0 57.4559 0.395837 59.0265 1.1875C60.597 1.97916 61.8186 3.0919 62.6911 4.5257C63.5637 5.95949 64 7.63519 64 9.5528C64 11.4879 63.55 13.1637 62.6498 14.5798C61.759 15.996 60.5052 17.0868 58.8888 17.852C57.2815 18.6174 55.4032 19 53.254 19H45.9798V13.3H51.711C52.611 13.3 53.378 13.1505 54.0117 12.8514C54.6547 12.5435 55.146 12.1081 55.4859 11.5452C55.8349 10.9822 56.0093 10.318 56.0093 9.5528C56.0093 8.77866 55.8349 8.11898 55.4859 7.57361C55.146 7.01945 54.6547 6.59722 54.0117 6.30694C53.378 6.00787 52.611 5.85834 51.711 5.85834H49.0107V27.0222H41.3508Z" fill="white"/>
</svg>
