<svg width="33" height="32" viewBox="0 0 33 32" fill="none" xmlns="http://www.w3.org/2000/svg">
<g id="Social Icons" clip-path="url(#clip0_5167_84628)">
<path id="Vector" fill-rule="evenodd" clip-rule="evenodd" d="M32.6816 16C32.6816 24.8366 25.5182 32 16.6816 32C7.84509 32 0.681641 24.8366 0.681641 16C0.681641 7.16344 7.84509 0 16.6816 0C25.5182 0 32.6816 7.16344 32.6816 16ZM17.255 11.8119C15.6988 12.4592 12.5885 13.7989 7.92416 15.8311C7.16675 16.1323 6.76998 16.427 6.73386 16.7151C6.67282 17.202 7.28259 17.3937 8.11293 17.6548C8.22588 17.6903 8.34291 17.7271 8.46289 17.7661C9.27982 18.0317 10.3787 18.3424 10.95 18.3547C11.4682 18.3659 12.0466 18.1523 12.6852 17.7138C17.0432 14.772 19.2928 13.2851 19.4341 13.253C19.5337 13.2304 19.6718 13.202 19.7653 13.2851C19.8589 13.3683 19.8497 13.5258 19.8398 13.568C19.7794 13.8255 17.3858 16.0508 16.1471 17.2024C15.761 17.5614 15.4871 17.816 15.4311 17.8742C15.3056 18.0045 15.1778 18.1277 15.0549 18.2461C14.296 18.9778 13.7269 19.5264 15.0865 20.4224C15.7398 20.8529 16.2627 21.209 16.7843 21.5642C17.3539 21.9521 17.922 22.339 18.6571 22.8209C18.8444 22.9437 19.0233 23.0712 19.1975 23.1954C19.8604 23.668 20.456 24.0926 21.1918 24.0248C21.6193 23.9855 22.0609 23.5835 22.2852 22.3845C22.8153 19.5509 23.8571 13.4113 24.0979 10.8813C24.119 10.6596 24.0925 10.376 24.0712 10.2514C24.0499 10.1269 24.0053 9.94948 23.8435 9.81813C23.6518 9.66258 23.3558 9.62978 23.2235 9.63211C22.6217 9.64271 21.6984 9.96376 17.255 11.8119Z" fill="#FFE606"/>
</g>
<defs>
<clipPath id="clip0_5167_84628">
<rect width="32" height="32" fill="white" transform="translate(0.681641)"/>
</clipPath>
</defs>
</svg>
