<svg width="70" height="70" viewBox="0 0 70 70" fill="none" xmlns="http://www.w3.org/2000/svg">
<rect x="1.26342" y="1.27856" width="67.8798" height="67.8798" rx="10.5714" fill="url(#paint0_linear_443_10070)" stroke="#9A7B3C" stroke-width="1.11278"/>
<g clip-path="url(#clip0_443_10070)">
<path d="M29.6742 21.7965C29.558 21.6875 29.4056 21.627 29.2476 21.627H23.9739C23.6281 21.627 23.3477 21.9105 23.3477 22.2601C23.3477 22.6098 23.6281 22.8933 23.9739 22.8933H29.0006L32.8409 26.51L31.3142 28.1155C31.0749 28.3673 31.0825 28.7683 31.3316 29.011C31.4534 29.1292 31.6093 29.1876 31.7658 29.1876C31.9301 29.1876 32.0943 29.1229 32.2174 28.9934L34.0002 27.1186H42.767L45.5753 29.8834C45.6971 30.003 45.8551 30.0628 46.0123 30.0628C46.1696 30.0628 46.338 29.9988 46.4611 29.8714C46.7026 29.621 46.697 29.22 46.4493 28.9759L43.4586 26.0317C43.3417 25.9163 43.1852 25.8523 43.0216 25.8523H33.9807L29.6749 21.7972L29.6742 21.7965Z" fill="#9A7B3C"/>
<path d="M18.5754 33.2238C18.6972 33.3441 18.8551 33.4046 19.0138 33.4046C19.1724 33.4046 19.3387 33.3413 19.4612 33.2146L21.166 31.4551H24.5234C24.8692 31.4551 25.1496 31.1716 25.1496 30.822C25.1496 30.4723 24.8692 30.1888 24.5234 30.1888H21.1938L19.4925 28.1465C19.2699 27.8792 18.8746 27.8447 18.6102 28.0698C18.3458 28.2949 18.3117 28.6945 18.5344 28.9619L20.0568 30.7896L18.5657 32.3282C18.3235 32.5779 18.3277 32.9789 18.5747 33.2238H18.5754Z" fill="#9A7B3C"/>
<path d="M43.4904 32.1346C43.4904 31.785 43.21 31.5015 42.8641 31.5015H28.8542C28.6914 31.5015 28.5348 31.5655 28.4179 31.6802L26.0027 34.0482H22.3997C22.0539 34.0482 21.7734 34.3317 21.7734 34.6813C21.7734 35.031 22.0539 35.3145 22.3997 35.3145H26.2567C26.4195 35.3145 26.5761 35.2505 26.693 35.1358L29.1082 32.7678H42.8648C43.2107 32.7678 43.4911 32.4843 43.4911 32.1346H43.4904Z" fill="#9A7B3C"/>
<path d="M31.1542 39.4961C31.2746 39.6087 31.427 39.6643 31.5794 39.6643C31.7478 39.6643 31.9155 39.596 32.0393 39.4609L33.7949 37.5418H39.713C40.0588 37.5418 40.3392 37.2582 40.3392 36.9086C40.3392 36.559 40.0588 36.2754 39.713 36.2754H33.7831L32.0254 34.4744C31.7826 34.2254 31.3859 34.2226 31.1396 34.4688C30.8933 34.7143 30.8905 35.1153 31.1341 35.3644L32.6551 36.9234L31.1201 38.6013C30.8849 38.858 30.901 39.2583 31.1549 39.4961H31.1542Z" fill="#9A7B3C"/>
<path d="M56.1746 25.4112L53.17 22.1758V19.8007C53.17 19.6375 53.1073 19.4799 52.9953 19.3624L49.2176 15.3833C49.0993 15.2588 48.9365 15.1885 48.766 15.1885H34.2837C34.1174 15.1885 33.958 15.2553 33.8411 15.3742L31.6632 17.5762H21.7684C21.6063 17.5762 21.4511 17.6395 21.3342 17.7528L14.2506 24.636C14.1275 24.7556 14.0586 24.9202 14.0586 25.0925V33.7268C14.0586 33.8921 14.1226 34.0504 14.236 34.1686L20.0602 40.2167C20.1777 40.3391 20.3399 40.408 20.509 40.408H26.2315L29.6689 43.8834C29.7865 44.0023 29.9458 44.0691 30.1115 44.0691H37.0879L36.8958 44.276C36.7873 44.3934 36.7267 44.5482 36.7267 44.7093V48.4492C36.7267 48.6138 36.7901 48.7714 36.9028 48.8896L42.8062 55.0566C42.9294 55.1847 43.0929 55.2494 43.2564 55.2494C43.42 55.2494 43.5703 55.1903 43.692 55.0714C43.9404 54.828 43.9474 54.4277 43.7066 54.1758L37.9799 48.1924V44.9591L38.8059 44.0684H42.2336C42.5794 44.0684 42.8598 43.7849 42.8598 43.4353C42.8598 43.0856 42.5794 42.8021 42.2336 42.8021H30.3717L27.127 39.5216L27.1959 37.5152C27.2077 37.1655 26.9378 36.8729 26.5919 36.8602C26.2475 36.849 25.9566 37.1212 25.9441 37.4709L25.8864 39.141H20.7734L15.3111 33.4693V25.362L17.5948 23.1424L20.7003 26.221C20.8172 26.3371 20.9745 26.4018 21.1387 26.4018H25.8377L27.5431 28.1261C27.6656 28.2499 27.8256 28.3118 27.9857 28.3118C28.1457 28.3118 28.3065 28.2499 28.4282 28.1261C28.6725 27.8792 28.6725 27.4782 28.4282 27.2305L26.5391 25.3205C26.4215 25.2016 26.2621 25.1348 26.0965 25.1348H21.3934L18.4973 22.2637L22.0196 18.8411H31.6409L33.5009 20.9383C33.7319 21.1986 34.1278 21.2204 34.3853 20.9868C34.6427 20.7533 34.6643 20.353 34.4333 20.0927L32.7828 18.2312L34.5411 16.4534H48.4974L51.9161 20.054V22.154L48.7257 25.2297C48.6018 25.3493 48.5315 25.5147 48.5315 25.6877V32.5779L47.1524 33.9027C46.9019 34.1433 46.8915 34.5443 47.1294 34.7975C47.2526 34.9284 47.4182 34.9945 47.5838 34.9945C47.739 34.9945 47.8942 34.9368 48.0152 34.8207L49.1543 33.7268L50.2704 34.8172C50.3922 34.9361 50.5488 34.9952 50.7053 34.9952C50.8619 34.9952 51.0331 34.9305 51.1555 34.8017C51.3956 34.5506 51.3893 34.1496 51.1402 33.9062L49.7833 32.5807V25.9586L52.5173 23.3232L55.0905 26.0936V34.7307L51.994 37.7797C51.9884 37.7846 51.9829 37.7896 51.9773 37.7945C51.9745 37.7973 51.9717 37.8008 51.9683 37.8043L50.4506 39.2986H46.7481L43.7059 36.0976C43.4666 35.8458 43.07 35.8373 42.8201 36.08C42.571 36.322 42.5627 36.723 42.8028 36.9756L46.03 40.3708C46.1483 40.4953 46.3111 40.5649 46.4816 40.5649H48.5315V42.9041L44.4115 47.337C44.3023 47.4544 44.2417 47.6092 44.2417 47.7703V52.1469C44.2417 52.4965 44.5222 52.78 44.868 52.78C45.2138 52.78 45.4942 52.4965 45.4942 52.1469V48.0208L46.6034 46.8269H50.7053C50.8716 46.8269 51.031 46.7601 51.1479 46.6412L54.3758 43.3776C54.4934 43.2587 54.5595 43.0976 54.5595 42.9301V39.7728C54.5595 39.6046 54.4934 39.4435 54.3758 39.3253L53.3119 38.2497L56.153 35.4525C56.2741 35.3336 56.3423 35.1697 56.3423 34.9987V25.8439C56.3423 25.6828 56.2817 25.528 56.1725 25.4105L56.1746 25.4112ZM53.3091 40.0366V42.6698L50.4479 45.5627H47.7821L49.6157 43.59C49.7249 43.4725 49.7854 43.3178 49.7854 43.1567V40.567H50.7074C50.8709 40.567 51.0275 40.5023 51.1444 40.3876L52.4171 39.1347L53.3098 40.0373L53.3091 40.0366Z" fill="#9A7B3C"/>
<path d="M36.7124 23.4708C36.8349 23.5946 36.9949 23.6566 37.155 23.6566C37.315 23.6566 37.4758 23.5946 37.5975 23.4708L39.3949 21.6537H45.4145L46.7227 23.1388C46.8465 23.2795 47.0184 23.3505 47.1903 23.3505C47.3385 23.3505 47.4874 23.2978 47.6064 23.1901C47.8645 22.9573 47.8875 22.557 47.6572 22.296L46.555 21.0444L48.1178 19.4643C48.3621 19.2174 48.3628 18.8164 48.1178 18.5687C47.8736 18.3218 47.477 18.3218 47.232 18.5687L45.434 20.3866H39.4157L38.1069 18.9008C37.8773 18.6398 37.4813 18.6166 37.2225 18.8487C36.9643 19.0816 36.9414 19.4819 37.1717 19.7429L38.2739 20.9945L36.711 22.5746C36.4661 22.8215 36.4661 23.2225 36.711 23.4701L36.7124 23.4708Z" fill="#9A7B3C"/>
</g>
<defs>
<linearGradient id="paint0_linear_443_10070" x1="35.2033" y1="0.722168" x2="35.2033" y2="170.978" gradientUnits="userSpaceOnUse">
<stop stop-color="#221C0F"/>
<stop offset="1" stop-color="#9A7B3C"/>
</linearGradient>
<clipPath id="clip0_443_10070">
<rect width="42.2858" height="40.0602" fill="white" transform="translate(14.0586 15.1885)"/>
</clipPath>
</defs>
</svg>
