<svg width="18" height="18" viewBox="0 0 18 18" fill="none" xmlns="http://www.w3.org/2000/svg">
<path d="M14.6254 0H7.87538C7.25438 0 6.75038 0.50325 6.75038 1.125C6.75038 1.74675 7.25438 2.25 7.87538 2.25H14.1596L0.329625 16.0792C-0.109875 16.518 -0.109875 17.2312 0.329625 17.67C0.549375 17.8897 0.837375 17.9993 1.12538 17.9993C1.41338 17.9993 1.70138 17.8897 1.92113 17.67L15.7504 3.84075V10.125C15.7504 10.7467 16.2544 11.25 16.8754 11.25C17.4964 11.25 18.0004 10.7467 18.0004 10.125V3.375C18.0004 1.51425 16.4861 0 14.6254 0Z" fill="#5DFAFA"/>
</svg>
