<svg width="16" height="17" viewBox="0 0 16 17" fill="none" xmlns="http://www.w3.org/2000/svg">
<path d="M13.3333 7.39193V12.7253C13.3333 14.5633 11.838 16.0586 10 16.0586H3.33333C1.49533 16.0586 0 14.5633 0 12.7253V6.05859C0 4.22059 1.49533 2.72526 3.33333 2.72526H8.66667C9.03467 2.72526 9.33333 3.02393 9.33333 3.39193C9.33333 3.75993 9.03467 4.05859 8.66667 4.05859H3.33333C2.23067 4.05859 1.33333 4.95593 1.33333 6.05859V12.7253C1.33333 13.8279 2.23067 14.7253 3.33333 14.7253H10C11.1027 14.7253 12 13.8279 12 12.7253V7.39193C12 7.02393 12.2987 6.72526 12.6667 6.72526C13.0347 6.72526 13.3333 7.02393 13.3333 7.39193ZM14 0.0585938H9.33333C8.96533 0.0585938 8.66667 0.35726 8.66667 0.72526C8.66667 1.09326 8.96533 1.39193 9.33333 1.39193H13.724L5.52867 9.58726C5.268 9.84793 5.268 10.2693 5.52867 10.5299C5.65867 10.6599 5.82933 10.7253 6 10.7253C6.17067 10.7253 6.34133 10.6599 6.47133 10.5299L14.6667 2.33459V6.72526C14.6667 7.09326 14.9653 7.39193 15.3333 7.39193C15.7013 7.39193 16 7.09326 16 6.72526V2.05859C16 0.955927 15.1027 0.0585938 14 0.0585938Z" fill="#E2B65D"/>
</svg>
