<svg width="169" height="111" viewBox="0 0 169 111" fill="none" xmlns="http://www.w3.org/2000/svg">
<path d="M65.49 82.6641H44.9023V92.8956H65.49V82.6641Z" fill="#35DEED" fill-opacity="0.3"/>
<path d="M124.174 82.6641H103.586V92.8956H124.174V82.6641Z" fill="#35DEED" fill-opacity="0.3"/>
<path d="M95.1523 58.7014V0H120.444C124.794 0 128.598 0.859124 131.86 2.579C135.121 4.29887 137.658 6.71546 139.471 9.83039C141.283 12.9453 142.189 16.5848 142.189 20.7505C142.189 24.9162 141.254 28.5947 139.387 31.6707C137.537 34.7466 134.933 37.1161 131.576 38.7791C128.238 40.4422 124.338 41.2721 119.875 41.2721H104.77V28.8903H116.672C118.541 28.8903 120.133 28.5655 121.449 27.9159C122.785 27.2467 123.805 26.3015 124.51 25.0786C125.235 23.8557 125.598 22.4136 125.598 20.7505C125.598 19.0875 125.235 17.6356 124.51 16.4517C123.805 15.2482 122.784 14.3306 121.449 13.7005C120.133 13.0509 118.541 12.7261 116.672 12.7261H111.065V58.7014H95.1572H95.1523Z" fill="#35DEED"/>
<path d="M76.724 0V58.7014H60.8164V0H76.724Z" fill="#35DEED"/>
<path d="M0 58.7014V0H15.9076V23.7323H16.7084L34.3327 0H52.8713L33.0731 26.1408L53.3284 58.7014H34.3311L21.1712 36.689L15.9076 43.5685V58.703H0V58.7014Z" fill="#35DEED"/>
<path d="M169.001 73.9267L156.421 87.6337H156.357L169.001 101.406V110.435H120.758V64.832H169.001V73.9267ZM151.169 98.0926L141.054 87.6337L151.169 77.2398H133.013V98.0926H151.169Z" fill="#35DEED"/>
<path d="M97.4503 65.0273H109.706V110.436H60.5547V65.0273H72.81V98.9376H97.4503V65.0273Z" fill="#35DEED"/>
<path d="M37.3175 64.897H49.5728V110.435H37.3175V93.2205H12.353V110.435H0.0976562V64.897H12.353V81.7222H37.3175V64.897Z" fill="#35DEED"/>
</svg>
